<svg display="none" xmlns="http://www.w3.org/2000/svg">>
<symbol id='search' viewBox="0 0 23 23">
<path  fill-rule="evenodd" clip-rule="evenodd" d="M16.3775 14.5H15.385L15.04 14.1575C16.2588 12.7362 17 10.8938 17 8.875C17 4.3875 13.3625 0.75 8.875 0.75C4.3875 0.75 0.75 4.3875 0.75 8.875C0.75 13.3625 4.3875 17 8.875 17C10.8938 17 12.735 16.26 14.1563 15.0425L14.5013 15.385V16.375L20.7488 22.6137L22.6125 20.75L16.3775 14.5ZM8.87501 14.5C5.76751 14.5 3.25001 11.9825 3.25001 8.875C3.25001 5.76875 5.76751 3.25 8.87501 3.25C11.9813 3.25 14.5 5.76875 14.5 8.875C14.5 11.9825 11.9813 14.5 8.87501 14.5Z"/>
</symbol>

<symbol id='heart' viewBox="0 0 24 25">
<path fill-rule="evenodd" clip-rule="evenodd" d="M17.5 1C15.0556 1 12.8556 2.7875 12 5.125C11.1444 2.7875 8.94444 1 6.5 1C3.44444 1 1 3.6125 1 7.1875C1 12 5.27778 16.125 12 23C18.7222 16.125 23 12 23 7.1875C23 3.6125 20.5556 1 17.5 1Z" />
</symbol>

<symbol id='search' viewBox="0 0 24 24">
<path d="M20.422 11.516c-.178-3.233-3.031-5.778-6.432-5.492-1.087-1.239-2.693-2.024-4.49-2.024-3.172 0-5.754 2.443-5.922 5.516-2.033.359-3.578 2.105-3.578 4.206 0 2.362 1.949 4.278 4.354 4.278h1.326c.771 1.198 2.124 2 3.674 2h10.291c2.406 0 4.355-1.916 4.355-4.278 0-2.101-1.545-3.847-3.578-4.206zm-15.395 4.484h-.673c-1.297 0-2.354-1.022-2.354-2.278 0-2.118 2.104-2.597 3.488-2.512-.05-1.356.137-5.21 4.012-5.21.967 0 1.714.25 2.29.644-1.823.922-3.096 2.746-3.212 4.872-2.022.358-3.697 2.127-3.551 4.484z"/>
</symbol>

<symbol id='cloud' viewBox="0 0 24 24">
<path d="M20.422 11.516c-.178-3.233-3.031-5.778-6.432-5.492-1.087-1.239-2.693-2.024-4.49-2.024-3.172 0-5.754 2.443-5.922 5.516-2.033.359-3.578 2.105-3.578 4.206 0 2.362 1.949 4.278 4.354 4.278h1.326c.771 1.198 2.124 2 3.674 2h10.291c2.406 0 4.355-1.916 4.355-4.278 0-2.101-1.545-3.847-3.578-4.206zm-15.395 4.484h-.673c-1.297 0-2.354-1.022-2.354-2.278 0-2.118 2.104-2.597 3.488-2.512-.05-1.356.137-5.21 4.012-5.21.967 0 1.714.25 2.29.644-1.823.922-3.096 2.746-3.212 4.872-2.022.358-3.697 2.127-3.551 4.484z"/>
</symbol>

<symbol id='cloud_rain' viewBox="0 0 24 24">
<path d="M5.582 23l-1.41-1.41 3.59-3.59 1.41 1.41-3.59 3.59zm8.543-3.59l-1.41-1.41-3.59 3.59 1.41 1.41 3.59-3.59zm4.875 0l-1.41-1.41-3.59 3.59 1.41 1.41 3.59-3.59zm5-6.688c0 2.362-1.949 4.278-4.355 4.278h-10.291c-1.55 0-2.902-.802-3.674-2h-1.326c-2.405 0-4.354-1.916-4.354-4.278 0-2.101 1.545-3.846 3.578-4.206.168-3.073 2.75-5.516 5.922-5.516 1.797 0 3.403.785 4.49 2.024 3.4-.286 6.254 2.258 6.432 5.492 2.033.359 3.578 2.105 3.578 4.206zm-15.422-4.206c.116-2.126 1.389-3.95 3.212-4.872-.576-.394-1.323-.644-2.29-.644-3.875 0-4.062 3.854-4.012 5.209-1.384-.084-3.488.395-3.488 2.513 0 1.256 1.057 2.278 2.354 2.278h.674c-.147-2.357 1.528-4.126 3.55-4.484z"/>
</symbol>
</svg>